<?xml version="1.0" standalone="no"?>
<!DOCTYPE svg PUBLIC "-//W3C//DTD SVG 20010904//EN"
 "http://www.w3.org/TR/2001/REC-SVG-20010904/DTD/svg10.dtd">
<svg version="1.0" xmlns="http://www.w3.org/2000/svg"
 width="300.000000pt" height="207.000000pt" viewBox="0 0 300.000000 207.000000"
 preserveAspectRatio="xMidYMid meet">
<metadata>
Created by potrace 1.10, written by Peter Selinger 2001-2011
</metadata>
<g transform="translate(0.000000,207.000000) scale(0.100000,-0.100000)"
fill="#000000" stroke="none">
<path d="M1440 1550 c-52 -4 -122 -13 -155 -20 -33 -8 -66 -15 -74 -16 -39 -7
-144 -69 -165 -97 -37 -50 -45 -88 -57 -260 -15 -233 -3 -344 54 -492 30 -79
64 -147 89 -180 150 -199 261 -294 343 -295 17 -1 47 -1 68 -1 44 0 101 27
166 79 25 20 57 46 70 57 121 98 158 157 195 315 2 8 11 42 20 75 8 33 18 87
21 120 3 33 8 80 11 105 3 25 5 50 4 55 0 6 -5 91 -9 190 -10 200 -20 238 -73
279 -89 68 -292 102 -508 86z m307 -49 c107 -22 196 -60 212 -89 32 -60 44
-502 17 -633 -18 -86 -56 -216 -79 -270 -22 -52 -73 -106 -179 -186 -97 -74
-134 -96 -182 -107 -25 -6 -28 -5 -21 11 18 43 35 162 30 204 -4 38 -2 49 15
64 11 10 20 21 20 25 0 5 -53 10 -117 12 -104 3 -126 7 -181 32 -34 16 -76 44
-92 63 -33 37 -80 124 -80 148 0 24 -43 115 -52 109 -17 -11 -6 -45 55 -165
59 -117 124 -216 231 -353 84 -108 48 -24 -43 100 -27 38 -48 70 -46 72 2 2
24 -4 49 -13 25 -10 58 -15 73 -12 19 4 36 -1 52 -14 21 -17 23 -25 18 -67 -8
-57 12 -182 33 -207 14 -17 13 -18 -15 -11 -55 14 -119 59 -203 144 -103 103
-159 188 -205 312 -34 91 -43 132 -51 230 -3 25 -7 53 -11 63 -4 9 -3 17 3 17
5 0 11 65 14 158 7 208 22 254 95 298 123 73 442 106 640 65z m-217 -1085 c0
-26 -6 -48 -15 -56 -13 -11 -15 -5 -15 44 0 43 3 56 15 56 11 0 15 -12 15 -44z"/>
<path d="M1211 1335 c9 -8 112 -35 117 -31 4 4 -44 20 -93 31 -16 4 -27 4 -24
0z"/>
<path d="M1673 1301 c-56 -19 -123 -65 -123 -84 0 -7 9 -23 19 -36 l18 -23 71
47 c102 68 180 74 235 19 22 -22 27 -24 27 -9 0 28 -64 81 -114 94 -59 14 -71
14 -133 -8z m75 -21 c-15 -4 -37 -15 -50 -24 -24 -17 -68 -22 -68 -7 0 16 65
41 105 40 36 -1 37 -1 13 -9z"/>
<path d="M1130 1291 c-49 -25 -77 -72 -86 -139 -5 -43 -3 -63 8 -83 14 -24 14
-28 -1 -44 -15 -16 -15 -17 4 -8 19 9 42 9 135 -2 44 -5 45 -5 10 6 -19 6 -39
15 -44 20 -11 10 31 59 51 59 7 0 13 5 13 10 0 20 -25 9 -61 -26 -44 -43 -72
-40 -96 10 -13 28 -13 39 -1 82 11 43 19 52 58 72 64 32 118 18 208 -55 59
-48 91 -115 81 -170 -13 -70 -66 -183 -85 -183 -7 0 -30 -11 -50 -25 -21 -14
-48 -28 -61 -31 -29 -8 -30 -24 -2 -24 25 0 58 17 82 41 25 27 37 24 37 -9 0
-26 15 -52 31 -52 3 0 4 12 1 27 l-5 27 27 -27 c24 -24 26 -30 15 -45 -27 -35
-44 -42 -103 -41 -60 0 -62 1 -96 44 -32 40 -70 59 -70 35 0 -14 47 -89 73
-117 19 -21 30 -23 120 -23 98 0 99 0 128 31 16 17 29 36 29 41 0 16 30 -12
46 -44 8 -15 22 -28 31 -28 13 0 14 3 5 12 -7 7 -12 20 -12 29 0 9 -10 23 -22
32 -21 14 -22 16 -5 22 13 6 27 -3 52 -31 19 -22 34 -44 35 -50 0 -7 28 -14
73 -16 67 -5 74 -3 100 21 16 14 42 45 58 69 18 25 38 42 50 42 11 0 28 14 39
33 29 47 24 52 -12 11 -22 -23 -44 -36 -67 -39 -21 -3 -49 -19 -77 -45 -40
-36 -48 -40 -98 -40 -51 0 -57 2 -88 39 -25 30 -38 37 -48 31 -29 -18 -75 -11
-110 18 -19 16 -45 34 -57 41 -30 15 -29 26 7 97 l30 59 0 -80 c0 -67 3 -82
19 -92 17 -11 18 -5 20 148 2 169 -2 188 -47 226 -25 21 -25 23 -9 41 9 10 17
24 17 30 0 31 -129 82 -210 82 -19 0 -51 -8 -70 -19z"/>
<path d="M1208 1085 c-62 -35 -8 -64 95 -52 61 8 78 21 55 44 -24 23 -115 28
-150 8z"/>
<path d="M1658 1086 c-21 -7 -40 -11 -43 -8 -3 3 -5 -2 -5 -12 0 -9 12 -21 27
-27 34 -13 173 -13 185 -1 12 12 94 -3 127 -24 23 -13 22 -12 -4 12 -19 18
-25 29 -17 32 7 2 17 13 23 25 12 22 12 22 -13 0 -24 -23 -72 -31 -82 -14 -3
5 -14 7 -24 4 -10 -2 -24 3 -31 11 -17 20 -91 21 -143 2z"/>
<path d="M1645 842 c-9 -9 -5 -22 6 -22 6 0 40 -14 74 -31 35 -17 70 -29 78
-27 9 1 -22 21 -69 44 -46 22 -86 39 -89 36z"/>
<path d="M1572 773 c-19 -7 -4 -23 24 -23 15 0 24 6 24 15 0 15 -22 19 -48 8z"/>
<path d="M1064 722 c19 -53 72 -156 114 -222 38 -61 142 -186 142 -172 0 4
-33 54 -73 111 -41 57 -97 150 -125 206 -54 107 -82 145 -58 77z"/>
<path d="M1794 588 c-106 -158 -112 -170 -57 -112 39 42 145 214 130 214 -2 0
-35 -46 -73 -102z"/>
<path d="M1375 600 c4 -6 58 -10 131 -10 76 0 124 4 124 10 0 6 -50 10 -131
10 -84 0 -128 -4 -124 -10z"/>
<path d="M1740 565 c-14 -8 -51 -20 -83 -26 -32 -6 -60 -16 -63 -20 -15 -25
116 9 156 41 29 23 25 25 -10 5z"/>
</g>
</svg>
